# xmcd CD database file
#
# Track frame offsets:
#	150
#	14158
#	28215
#	43219
#	57167
#	71459
#	85456
#	99423
#	114103
#	128074
#	141712
#	156478
#	170769
#	185726
#	199860
#	213076
#	226330
#	241502
#	254637
#	269257
#	282876
#	296759
#	310807
#	324870
#	338835
#
# Disc length: 4706 seconds
#
# Revision: 0
# Processed by: cddbd v1.5.1PL0 Copyright (c) Steve Scherf et al.
# Submitted via: CDex 1.51
#
DISCID=7e126019
DTITLE=Blind Boy Fuller - Remastered 1935-1938 #A
DYEAR=2004
DGENRE=Blues
TTITLE0=Baby, I Don't Have to Worry ('Cause That Stuff Is Here) 
TTITLE1=I'm a Rattlesnakin' Daddy 
TTITLE2=I'm Climbin' on Top of the Hill 
TTITLE3=Ain't It a Crying Shame? 
TTITLE4=Looking for My Woman 
TTITLE5=Rag Mama Rag (Take 1)
TTITLE6=Rag Mama Rag  (Take 2)
TTITLE7=Baby You Gotta Change Your Mind 
TTITLE8=Evil Hearted Woman 
TTITLE9=My Brownskin Sugar Plum 
TTITLE10=Somebody's Been Playing With That Thing 
TTITLE11=Log Cabin Blues (Take 1)
TTITLE12=Log Cabin Blues (Take 2) 
TTITLE13=Homesick and Lonesome Blues 
TTITLE14=Walking My Troubles Away (Take 1)
TTITLE15=Walking My Troubles Away (Take 2) 
TTITLE16=Black and Tan 
TTITLE17=Keep Away from My Woman (Take 1)
TTITLE18=Keep Away from My Woman (Take 2) 
TTITLE19=Babe You Got to Do Better 
TTITLE20=Big Bed Blues 
TTITLE21=Truckin' My Blues Away 
TTITLE22=(I Got a Woman, Crazy for Me) She's Funny That Way 
TTITLE23=Cat Man Blues (Take 1)
TTITLE24=Cat Man Blues (Take 2)
EXTD=YEAR: 2004
EXTT0=
EXTT1=
EXTT2=
EXTT3=
EXTT4=
EXTT5=
EXTT6=
EXTT7=
EXTT8=
EXTT9=
EXTT10=
EXTT11=
EXTT12=
EXTT13=
EXTT14=
EXTT15=
EXTT16=
EXTT17=
EXTT18=
EXTT19=
EXTT20=
EXTT21=
EXTT22=
EXTT23=
EXTT24=
PLAYORDER=
